<mxfile host="app.diagrams.net" modified="2021-04-14T05:34:39.635Z" agent="5.0 (Macintosh)" etag="4rI_x09kZI8VXrh6LU4a" version="14.5.10" type="github">
  <diagram id="qmKL1kxHbapYgRFbrZcx" name="Page-1">
    <mxGraphModel dx="1220" dy="648" grid="1" gridSize="10" guides="1" tooltips="1" connect="1" arrows="1" fold="1" page="1" pageScale="1" pageWidth="1200" pageHeight="1600" math="0" shadow="0">
      <root>
        <mxCell id="0" />
        <mxCell id="1" parent="0" />
        <mxCell id="01Y5Ks1I51ajgbPWiFJr-1" value="" style="rounded=0;whiteSpace=wrap;html=1;fontColor=#333333;strokeColor=none;fillColor=#F4F4F4;fontSize=15;spacingLeft=5;spacingRight=5;" parent="1" vertex="1">
          <mxGeometry x="40" y="40" width="900" height="910" as="geometry" />
        </mxCell>
        <mxCell id="01Y5Ks1I51ajgbPWiFJr-2" value="" style="rounded=0;whiteSpace=wrap;html=1;fillColor=none;fontSize=15;spacingLeft=5;spacingRight=5;" parent="1" vertex="1">
          <mxGeometry x="50" y="50" width="880" height="900" as="geometry" />
        </mxCell>
        <mxCell id="01Y5Ks1I51ajgbPWiFJr-3" value="" style="rounded=0;whiteSpace=wrap;html=1;fillColor=none;fontSize=15;spacingLeft=5;spacingRight=5;" parent="1" vertex="1">
          <mxGeometry x="210" y="60" width="710" height="370" as="geometry" />
        </mxCell>
        <mxCell id="01Y5Ks1I51ajgbPWiFJr-4" value="" style="rounded=0;whiteSpace=wrap;html=1;fillColor=none;fontSize=15;spacingLeft=5;spacingRight=5;" parent="1" vertex="1">
          <mxGeometry x="210" y="440" width="710" height="390" as="geometry" />
        </mxCell>
        <mxCell id="01Y5Ks1I51ajgbPWiFJr-5" value="" style="rounded=0;whiteSpace=wrap;html=1;fillColor=none;fontSize=15;spacingLeft=5;spacingRight=5;" parent="1" vertex="1">
          <mxGeometry x="210" y="840" width="710" height="100" as="geometry" />
        </mxCell>
        <mxCell id="01Y5Ks1I51ajgbPWiFJr-6" value="A&lt;br style=&quot;font-size: 15px;&quot;&gt;P&lt;br style=&quot;font-size: 15px;&quot;&gt;I&lt;br style=&quot;font-size: 15px;&quot;&gt;&lt;div style=&quot;font-size: 15px;&quot;&gt;M&lt;/div&gt;&lt;div style=&quot;font-size: 15px;&quot;&gt;a&lt;/div&gt;n&lt;br style=&quot;font-size: 15px;&quot;&gt;a&lt;br style=&quot;font-size: 15px;&quot;&gt;g&lt;br style=&quot;font-size: 15px;&quot;&gt;e&lt;br style=&quot;font-size: 15px;&quot;&gt;r" style="rounded=0;whiteSpace=wrap;html=1;fillColor=none;fontSize=15;spacingLeft=5;spacingRight=5;fontStyle=1" parent="1" vertex="1">
          <mxGeometry x="60" y="60" width="40" height="770" as="geometry" />
        </mxCell>
        <mxCell id="01Y5Ks1I51ajgbPWiFJr-7" value="&lt;div style=&quot;font-size: 15px;&quot;&gt;模&lt;/div&gt;&lt;div style=&quot;font-size: 15px;&quot;&gt;块&lt;/div&gt;&lt;div style=&quot;font-size: 15px;&quot;&gt;管&lt;/div&gt;&lt;div style=&quot;font-size: 15px;&quot;&gt;理&lt;/div&gt;&lt;div style=&quot;font-size: 15px;&quot;&gt;器&lt;/div&gt;" style="rounded=0;whiteSpace=wrap;html=1;fillColor=none;fontSize=15;spacingLeft=5;spacingRight=5;fontStyle=1" parent="1" vertex="1">
          <mxGeometry x="110" y="60" width="40" height="770" as="geometry" />
        </mxCell>
        <mxCell id="01Y5Ks1I51ajgbPWiFJr-8" value="&lt;div style=&quot;font-size: 15px;&quot;&gt;C&lt;/div&gt;&lt;div style=&quot;font-size: 15px;&quot;&gt;P&lt;/div&gt;&lt;div style=&quot;font-size: 15px;&quot;&gt;S&lt;br style=&quot;font-size: 15px;&quot;&gt;&lt;/div&gt;&lt;div style=&quot;font-size: 15px;&quot;&gt;UI&lt;/div&gt;" style="rounded=0;whiteSpace=wrap;html=1;fillColor=none;fontSize=15;spacingLeft=5;spacingRight=5;fontStyle=1" parent="1" vertex="1">
          <mxGeometry x="160" y="60" width="40" height="770" as="geometry" />
        </mxCell>
        <mxCell id="01Y5Ks1I51ajgbPWiFJr-9" value="&lt;div style=&quot;font-size: 15px;&quot;&gt;业&lt;/div&gt;&lt;div style=&quot;font-size: 15px;&quot;&gt;务&lt;/div&gt;&lt;div style=&quot;font-size: 15px;&quot;&gt;层&lt;/div&gt;" style="rounded=0;whiteSpace=wrap;html=1;fontSize=15;spacingLeft=5;spacingRight=5;fontStyle=1" parent="1" vertex="1">
          <mxGeometry x="220" y="70" width="40" height="350" as="geometry" />
        </mxCell>
        <mxCell id="01Y5Ks1I51ajgbPWiFJr-10" value="&lt;div style=&quot;font-size: 15px;&quot;&gt;工&lt;/div&gt;&lt;div style=&quot;font-size: 15px;&quot;&gt;具&lt;/div&gt;&lt;div style=&quot;font-size: 15px;&quot;&gt;层&lt;/div&gt;" style="rounded=0;whiteSpace=wrap;html=1;fontSize=15;spacingLeft=5;spacingRight=5;fontStyle=1" parent="1" vertex="1">
          <mxGeometry x="220" y="450" width="40" height="370" as="geometry" />
        </mxCell>
        <mxCell id="01Y5Ks1I51ajgbPWiFJr-11" value="&lt;div style=&quot;font-size: 15px;&quot;&gt;S&lt;/div&gt;&lt;div style=&quot;font-size: 15px;&quot;&gt;D&lt;/div&gt;&lt;div style=&quot;font-size: 15px;&quot;&gt;K&lt;/div&gt;&lt;div style=&quot;font-size: 15px;&quot;&gt;层&lt;/div&gt;" style="rounded=0;whiteSpace=wrap;html=1;fontSize=15;spacingLeft=5;spacingRight=5;fontStyle=1" parent="1" vertex="1">
          <mxGeometry x="220" y="850" width="40" height="80" as="geometry" />
        </mxCell>
        <mxCell id="01Y5Ks1I51ajgbPWiFJr-12" value="" style="rounded=0;whiteSpace=wrap;html=1;fillColor=none;fontSize=15;spacingLeft=5;spacingRight=5;" parent="1" vertex="1">
          <mxGeometry x="270" y="70" width="640" height="170" as="geometry" />
        </mxCell>
        <mxCell id="01Y5Ks1I51ajgbPWiFJr-13" value="" style="rounded=0;whiteSpace=wrap;html=1;fillColor=none;fontSize=15;spacingLeft=5;spacingRight=5;" parent="1" vertex="1">
          <mxGeometry x="270" y="250" width="640" height="170" as="geometry" />
        </mxCell>
        <mxCell id="01Y5Ks1I51ajgbPWiFJr-14" value="" style="rounded=0;whiteSpace=wrap;html=1;fillColor=none;fontSize=15;spacingLeft=5;spacingRight=5;" parent="1" vertex="1">
          <mxGeometry x="270" y="500" width="640" height="130" as="geometry" />
        </mxCell>
        <mxCell id="01Y5Ks1I51ajgbPWiFJr-15" value="工具层接口" style="rounded=0;whiteSpace=wrap;html=1;fillColor=none;fontSize=15;spacingLeft=5;spacingRight=5;fontStyle=1" parent="1" vertex="1">
          <mxGeometry x="270" y="450" width="640" height="40" as="geometry" />
        </mxCell>
        <mxCell id="01Y5Ks1I51ajgbPWiFJr-16" value="系统SDK" style="rounded=0;whiteSpace=wrap;html=1;fontSize=15;spacingLeft=5;spacingRight=5;" parent="1" vertex="1">
          <mxGeometry x="270" y="850" width="640" height="80" as="geometry" />
        </mxCell>
        <mxCell id="01Y5Ks1I51ajgbPWiFJr-17" value="业务模块接口" style="rounded=0;whiteSpace=wrap;html=1;fillColor=none;fontSize=15;spacingLeft=5;spacingRight=5;fontStyle=1" parent="1" vertex="1">
          <mxGeometry x="280" y="100" width="620" height="40" as="geometry" />
        </mxCell>
        <mxCell id="01Y5Ks1I51ajgbPWiFJr-18" value="&lt;div style=&quot;font-size: 15px;&quot;&gt;首页导购模块&lt;/div&gt;" style="rounded=0;whiteSpace=wrap;html=1;strokeColor=#000000;fontSize=15;spacingLeft=5;spacingRight=5;" parent="1" vertex="1">
          <mxGeometry x="280" y="150" width="80" height="80" as="geometry" />
        </mxCell>
        <mxCell id="01Y5Ks1I51ajgbPWiFJr-19" value="特权模块" style="rounded=0;whiteSpace=wrap;html=1;strokeColor=#000000;fontSize=15;spacingLeft=5;spacingRight=5;" parent="1" vertex="1">
          <mxGeometry x="370" y="150" width="80" height="80" as="geometry" />
        </mxCell>
        <mxCell id="01Y5Ks1I51ajgbPWiFJr-20" value="商学院模块" style="rounded=0;whiteSpace=wrap;html=1;strokeColor=#000000;fontSize=15;spacingLeft=5;spacingRight=5;" parent="1" vertex="1">
          <mxGeometry x="460" y="150" width="80" height="80" as="geometry" />
        </mxCell>
        <mxCell id="01Y5Ks1I51ajgbPWiFJr-21" value="素材圈模块" style="rounded=0;whiteSpace=wrap;html=1;strokeColor=#000000;fontSize=15;spacingLeft=5;spacingRight=5;" parent="1" vertex="1">
          <mxGeometry x="550" y="150" width="80" height="80" as="geometry" />
        </mxCell>
        <mxCell id="01Y5Ks1I51ajgbPWiFJr-22" value="用户中心模块" style="rounded=0;whiteSpace=wrap;html=1;strokeColor=#000000;fontSize=15;spacingLeft=5;spacingRight=5;" parent="1" vertex="1">
          <mxGeometry x="640" y="150" width="80" height="80" as="geometry" />
        </mxCell>
        <mxCell id="01Y5Ks1I51ajgbPWiFJr-23" value="自营商城模块" style="rounded=0;whiteSpace=wrap;html=1;strokeColor=#000000;fontSize=15;spacingLeft=5;spacingRight=5;" parent="1" vertex="1">
          <mxGeometry x="730" y="150" width="80" height="80" as="geometry" />
        </mxCell>
        <mxCell id="01Y5Ks1I51ajgbPWiFJr-24" value="业务模块" style="text;html=1;strokeColor=none;fillColor=none;align=center;verticalAlign=middle;whiteSpace=wrap;rounded=0;fontSize=15;spacingLeft=0;spacingRight=0;fontStyle=1" parent="1" vertex="1">
          <mxGeometry x="270" y="70" width="80" height="30" as="geometry" />
        </mxCell>
        <mxCell id="01Y5Ks1I51ajgbPWiFJr-25" value="数据层接口" style="rounded=0;whiteSpace=wrap;html=1;fillColor=none;fontSize=15;spacingLeft=5;spacingRight=5;fontStyle=1" parent="1" vertex="1">
          <mxGeometry x="280" y="280" width="620" height="40" as="geometry" />
        </mxCell>
        <mxCell id="01Y5Ks1I51ajgbPWiFJr-26" value="用户数据" style="rounded=0;whiteSpace=wrap;html=1;strokeColor=#000000;fontSize=15;spacingLeft=5;spacingRight=5;" parent="1" vertex="1">
          <mxGeometry x="280" y="330" width="80" height="80" as="geometry" />
        </mxCell>
        <mxCell id="01Y5Ks1I51ajgbPWiFJr-27" value="商品数据" style="rounded=0;whiteSpace=wrap;html=1;strokeColor=#000000;fontSize=15;spacingLeft=5;spacingRight=5;" parent="1" vertex="1">
          <mxGeometry x="370" y="330" width="80" height="80" as="geometry" />
        </mxCell>
        <mxCell id="01Y5Ks1I51ajgbPWiFJr-28" value="订单数据" style="rounded=0;whiteSpace=wrap;html=1;strokeColor=#000000;fontSize=15;spacingLeft=5;spacingRight=5;" parent="1" vertex="1">
          <mxGeometry x="460" y="330" width="80" height="80" as="geometry" />
        </mxCell>
        <mxCell id="01Y5Ks1I51ajgbPWiFJr-29" value="资讯数据" style="rounded=0;whiteSpace=wrap;html=1;strokeColor=#000000;fontSize=15;spacingLeft=5;spacingRight=5;" parent="1" vertex="1">
          <mxGeometry x="550" y="330" width="80" height="80" as="geometry" />
        </mxCell>
        <mxCell id="01Y5Ks1I51ajgbPWiFJr-30" value="APP配置数据(软硬件)" style="rounded=0;whiteSpace=wrap;html=1;strokeColor=#000000;fontSize=15;spacingLeft=0;spacingRight=0;" parent="1" vertex="1">
          <mxGeometry x="640" y="330" width="80" height="80" as="geometry" />
        </mxCell>
        <mxCell id="01Y5Ks1I51ajgbPWiFJr-31" value="分享数据" style="rounded=0;whiteSpace=wrap;html=1;strokeColor=#000000;fontSize=15;spacingLeft=5;spacingRight=5;" parent="1" vertex="1">
          <mxGeometry x="730" y="330" width="80" height="80" as="geometry" />
        </mxCell>
        <mxCell id="01Y5Ks1I51ajgbPWiFJr-32" value="日志数据" style="rounded=0;whiteSpace=wrap;html=1;strokeColor=#000000;fontSize=15;spacingLeft=5;spacingRight=5;" parent="1" vertex="1">
          <mxGeometry x="820" y="330" width="80" height="80" as="geometry" />
        </mxCell>
        <mxCell id="01Y5Ks1I51ajgbPWiFJr-33" value="业务数据" style="text;html=1;strokeColor=none;fillColor=none;align=center;verticalAlign=middle;whiteSpace=wrap;rounded=0;fontSize=15;spacingLeft=0;spacingRight=0;fontStyle=1" parent="1" vertex="1">
          <mxGeometry x="270" y="250" width="80" height="30" as="geometry" />
        </mxCell>
        <mxCell id="01Y5Ks1I51ajgbPWiFJr-34" value="领域工具" style="text;html=1;strokeColor=none;fillColor=none;align=center;verticalAlign=middle;whiteSpace=wrap;rounded=0;fontSize=15;spacingLeft=0;spacingRight=0;fontStyle=1" parent="1" vertex="1">
          <mxGeometry x="270" y="500" width="80" height="30" as="geometry" />
        </mxCell>
        <mxCell id="01Y5Ks1I51ajgbPWiFJr-35" value="ResUpdate&lt;br style=&quot;font-size: 15px;&quot;&gt;（资源更新）" style="rounded=0;whiteSpace=wrap;html=1;strokeColor=#000000;fontSize=15;spacingLeft=5;spacingRight=5;" parent="1" vertex="1">
          <mxGeometry x="280" y="530" width="110" height="40" as="geometry" />
        </mxCell>
        <mxCell id="01Y5Ks1I51ajgbPWiFJr-36" value="AppUpgrade&lt;br style=&quot;font-size: 15px;&quot;&gt;（软件升级）" style="rounded=0;whiteSpace=wrap;html=1;strokeColor=#000000;fontSize=15;spacingLeft=5;spacingRight=5;" parent="1" vertex="1">
          <mxGeometry x="400" y="530" width="110" height="40" as="geometry" />
        </mxCell>
        <mxCell id="01Y5Ks1I51ajgbPWiFJr-37" value="ResourceManager&lt;br style=&quot;font-size: 15px;&quot;&gt;（资源管理）" style="rounded=0;whiteSpace=wrap;html=1;strokeColor=#000000;fontSize=15;spacingLeft=5;spacingRight=5;" parent="1" vertex="1">
          <mxGeometry x="520" y="530" width="130" height="40" as="geometry" />
        </mxCell>
        <mxCell id="01Y5Ks1I51ajgbPWiFJr-38" value="PluginManager&lt;br style=&quot;font-size: 15px;&quot;&gt;（插件管理）" style="rounded=0;whiteSpace=wrap;html=1;strokeColor=#000000;fontSize=15;spacingLeft=5;spacingRight=5;" parent="1" vertex="1">
          <mxGeometry x="660" y="530" width="110" height="40" as="geometry" />
        </mxCell>
        <mxCell id="01Y5Ks1I51ajgbPWiFJr-39" value="ThirdLogin&lt;br style=&quot;font-size: 15px;&quot;&gt;（第三方登录）" style="rounded=0;whiteSpace=wrap;html=1;strokeColor=#000000;fontSize=15;spacingLeft=5;spacingRight=5;" parent="1" vertex="1">
          <mxGeometry x="780" y="530" width="120" height="40" as="geometry" />
        </mxCell>
        <mxCell id="01Y5Ks1I51ajgbPWiFJr-40" value="ThirdPay&lt;br style=&quot;font-size: 15px;&quot;&gt;(第三方支付)" style="rounded=0;whiteSpace=wrap;html=1;strokeColor=#000000;fontSize=15;spacingLeft=5;spacingRight=5;" parent="1" vertex="1">
          <mxGeometry x="400" y="580" width="110" height="40" as="geometry" />
        </mxCell>
        <mxCell id="01Y5Ks1I51ajgbPWiFJr-41" value="Jpush&lt;br style=&quot;font-size: 15px;&quot;&gt;（极光推送）" style="rounded=0;whiteSpace=wrap;html=1;strokeColor=#000000;fontSize=15;spacingLeft=5;spacingRight=5;" parent="1" vertex="1">
          <mxGeometry x="520" y="580" width="130" height="40" as="geometry" />
        </mxCell>
        <mxCell id="01Y5Ks1I51ajgbPWiFJr-42" value="" style="rounded=0;whiteSpace=wrap;html=1;fillColor=none;fontSize=15;spacingLeft=5;spacingRight=5;" parent="1" vertex="1">
          <mxGeometry x="270" y="640" width="640" height="180" as="geometry" />
        </mxCell>
        <mxCell id="01Y5Ks1I51ajgbPWiFJr-43" value="通用工具" style="text;html=1;strokeColor=none;fillColor=none;align=center;verticalAlign=middle;whiteSpace=wrap;rounded=0;fontSize=15;spacingLeft=0;spacingRight=0;fontStyle=1" parent="1" vertex="1">
          <mxGeometry x="270" y="640" width="80" height="30" as="geometry" />
        </mxCell>
        <mxCell id="01Y5Ks1I51ajgbPWiFJr-44" value="LogManager&lt;br style=&quot;font-size: 15px;&quot;&gt;（日志）" style="rounded=0;whiteSpace=wrap;html=1;strokeColor=#000000;fontSize=15;spacingLeft=5;spacingRight=5;" parent="1" vertex="1">
          <mxGeometry x="280" y="670" width="110" height="40" as="geometry" />
        </mxCell>
        <mxCell id="01Y5Ks1I51ajgbPWiFJr-45" value="CacheManager&lt;br style=&quot;font-size: 15px;&quot;&gt;（缓存）" style="rounded=0;whiteSpace=wrap;html=1;strokeColor=#000000;fontSize=15;spacingLeft=5;spacingRight=5;" parent="1" vertex="1">
          <mxGeometry x="400" y="670" width="110" height="40" as="geometry" />
        </mxCell>
        <mxCell id="01Y5Ks1I51ajgbPWiFJr-46" value="ErrorAnalysis&lt;br style=&quot;font-size: 15px;&quot;&gt;(异常诊断工具)" style="rounded=0;whiteSpace=wrap;html=1;strokeColor=#000000;fontSize=15;spacingLeft=5;spacingRight=5;" parent="1" vertex="1">
          <mxGeometry x="520" y="670" width="120" height="40" as="geometry" />
        </mxCell>
        <mxCell id="01Y5Ks1I51ajgbPWiFJr-47" value="Camera&lt;br style=&quot;font-size: 15px;&quot;&gt;（摄像机封装）" style="rounded=0;whiteSpace=wrap;html=1;strokeColor=#000000;fontSize=15;spacingLeft=5;spacingRight=5;" parent="1" vertex="1">
          <mxGeometry x="650" y="670" width="120" height="40" as="geometry" />
        </mxCell>
        <mxCell id="01Y5Ks1I51ajgbPWiFJr-48" value="Vidio&lt;br style=&quot;font-size: 15px;&quot;&gt;（视频封装）" style="rounded=0;whiteSpace=wrap;html=1;strokeColor=#000000;fontSize=15;spacingLeft=5;spacingRight=5;" parent="1" vertex="1">
          <mxGeometry x="780" y="670" width="120" height="40" as="geometry" />
        </mxCell>
        <mxCell id="01Y5Ks1I51ajgbPWiFJr-49" value="HTTP&lt;br style=&quot;font-size: 15px;&quot;&gt;（网络）" style="rounded=0;whiteSpace=wrap;html=1;strokeColor=#000000;fontSize=15;spacingLeft=5;spacingRight=5;" parent="1" vertex="1">
          <mxGeometry x="650" y="720" width="120" height="40" as="geometry" />
        </mxCell>
        <mxCell id="01Y5Ks1I51ajgbPWiFJr-50" value="SQLite&lt;br style=&quot;font-size: 15px;&quot;&gt;（数据库）" style="rounded=0;whiteSpace=wrap;html=1;strokeColor=#000000;fontSize=15;spacingLeft=5;spacingRight=5;" parent="1" vertex="1">
          <mxGeometry x="780" y="720" width="120" height="40" as="geometry" />
        </mxCell>
        <mxCell id="01Y5Ks1I51ajgbPWiFJr-51" value="FileManager&lt;br style=&quot;font-size: 15px;&quot;&gt;（文件管理）" style="rounded=0;whiteSpace=wrap;html=1;fontSize=15;spacingLeft=5;spacingRight=5;" parent="1" vertex="1">
          <mxGeometry x="280" y="770" width="110" height="40" as="geometry" />
        </mxCell>
        <mxCell id="01Y5Ks1I51ajgbPWiFJr-52" value="Audio&lt;br style=&quot;font-size: 15px;&quot;&gt;（音频封装）" style="rounded=0;whiteSpace=wrap;html=1;fontSize=15;spacingLeft=5;spacingRight=5;" parent="1" vertex="1">
          <mxGeometry x="280" y="720" width="110" height="40" as="geometry" />
        </mxCell>
        <mxCell id="01Y5Ks1I51ajgbPWiFJr-53" value="ImagePicker&lt;br style=&quot;font-size: 15px;&quot;&gt;(图片选择)" style="rounded=0;whiteSpace=wrap;html=1;strokeColor=#000000;fontSize=15;spacingLeft=5;spacingRight=5;" parent="1" vertex="1">
          <mxGeometry x="400" y="720" width="110" height="40" as="geometry" />
        </mxCell>
        <mxCell id="01Y5Ks1I51ajgbPWiFJr-54" value="&lt;div style=&quot;font-size: 15px;&quot;&gt;Toast&lt;/div&gt;&lt;div style=&quot;font-size: 15px;&quot;&gt;（提示）&lt;br style=&quot;font-size: 15px;&quot;&gt;&lt;/div&gt;" style="rounded=0;whiteSpace=wrap;html=1;strokeColor=#000000;fontSize=15;spacingLeft=5;spacingRight=5;" parent="1" vertex="1">
          <mxGeometry x="520" y="720" width="120" height="40" as="geometry" />
        </mxCell>
        <mxCell id="01Y5Ks1I51ajgbPWiFJr-55" value="ThirdShare&lt;br style=&quot;font-size: 15px;&quot;&gt;(第三方分享)" style="rounded=0;whiteSpace=wrap;html=1;strokeColor=#000000;fontSize=15;spacingLeft=5;spacingRight=5;" parent="1" vertex="1">
          <mxGeometry x="280" y="580" width="110" height="40" as="geometry" />
        </mxCell>
        <mxCell id="01Y5Ks1I51ajgbPWiFJr-56" value="&lt;span style=&quot;color: rgb(23 , 26 , 29) ; font-family: , , &amp;#34;pingfang sc&amp;#34; , &amp;#34;hiragino sans gb&amp;#34; , &amp;#34;segoe ui&amp;#34; , , &amp;#34;roboto&amp;#34; , &amp;#34;droid sans&amp;#34; , &amp;#34;helvetica neue&amp;#34; , sans-serif ; font-size: 14px ; font-style: normal ; font-weight: 400 ; letter-spacing: normal ; text-align: left ; text-indent: 0px ; text-transform: none ; word-spacing: 0px ; background-color: rgb(255 , 255 , 255) ; display: inline ; float: none&quot;&gt;APM&lt;/span&gt;&lt;br style=&quot;font-size: 15px&quot;&gt;（&lt;span style=&quot;color: rgb(23 , 26 , 29) ; font-family: , , &amp;#34;pingfang sc&amp;#34; , &amp;#34;hiragino sans gb&amp;#34; , &amp;#34;segoe ui&amp;#34; , , &amp;#34;roboto&amp;#34; , &amp;#34;droid sans&amp;#34; , &amp;#34;helvetica neue&amp;#34; , sans-serif ; font-size: 14px ; font-style: normal ; font-weight: 400 ; letter-spacing: normal ; text-align: left ; text-indent: 0px ; text-transform: none ; word-spacing: 0px ; background-color: rgb(255 , 255 , 255) ; display: inline ; float: none&quot;&gt;听云&lt;/span&gt;）" style="rounded=0;whiteSpace=wrap;html=1;strokeColor=#000000;fontSize=15;spacingLeft=5;spacingRight=5;" parent="1" vertex="1">
          <mxGeometry x="660" y="580" width="110" height="40" as="geometry" />
        </mxCell>
        <mxCell id="01Y5Ks1I51ajgbPWiFJr-57" value="Sugo&lt;br style=&quot;font-size: 15px&quot;&gt;（&lt;span style=&quot;color: rgb(23 , 26 , 29) ; font-family: , , &amp;#34;pingfang sc&amp;#34; , &amp;#34;hiragino sans gb&amp;#34; , &amp;#34;segoe ui&amp;#34; , , &amp;#34;roboto&amp;#34; , &amp;#34;droid sans&amp;#34; , &amp;#34;helvetica neue&amp;#34; , sans-serif ; font-size: 14px ; font-style: normal ; font-weight: 400 ; letter-spacing: normal ; text-align: left ; text-indent: 0px ; text-transform: none ; word-spacing: 0px ; background-color: rgb(255 , 255 , 255) ; display: inline ; float: none&quot;&gt;数据采集&lt;/span&gt;）" style="rounded=0;whiteSpace=wrap;html=1;strokeColor=#000000;fontSize=15;spacingLeft=5;spacingRight=5;" parent="1" vertex="1">
          <mxGeometry x="780" y="580" width="120" height="40" as="geometry" />
        </mxCell>
      </root>
    </mxGraphModel>
  </diagram>
</mxfile>
